<?xml version="1.0" encoding="UTF-8" standalone="no"?>
<!-- This is a Stata 19.5 generated SVG file (http://www.stata.com) -->

<svg version="1.1" width="1600px" height="960px" viewBox="0 0 5400 3240" xmlns="http://www.w3.org/2000/svg" xmlns:xlink="http://www.w3.org/1999/xlink">
	<desc>Stata Graph - Graph</desc>
	<rect x="0" y="0" width="5400" height="3240" style="fill:#FFFFFF;stroke:none"/>
	<rect x="0.00" y="0.00" width="5400.00" height="3240.00" style="fill:#FFFFFF"/>
	<rect x="3.24" y="3.24" width="5393.52" height="3233.52" style="fill:none;stroke:#FFFFFF;stroke-width:6.48"/>
	<rect x="479.08" y="309.82" width="4807.52" height="2456.83" style="fill:#FFFFFF"/>
	<rect x="482.32" y="313.06" width="4801.04" height="2450.35" style="fill:none;stroke:#FFFFFF;stroke-width:6.48"/>
	<line x1="479.08" y1="2766.66" x2="543.88" y2="2766.66" style="stroke:#F0F0F0;stroke-width:9.72"/>
	<line x1="576.28" y1="2766.66" x2="641.08" y2="2766.66" style="stroke:#F0F0F0;stroke-width:9.72"/>
	<line x1="673.48" y1="2766.66" x2="738.28" y2="2766.66" style="stroke:#F0F0F0;stroke-width:9.72"/>
	<line x1="770.68" y1="2766.66" x2="835.48" y2="2766.66" style="stroke:#F0F0F0;stroke-width:9.72"/>
	<line x1="867.88" y1="2766.66" x2="932.68" y2="2766.66" style="stroke:#F0F0F0;stroke-width:9.72"/>
	<line x1="965.08" y1="2766.66" x2="1029.88" y2="2766.66" style="stroke:#F0F0F0;stroke-width:9.72"/>
	<line x1="1062.28" y1="2766.66" x2="1127.08" y2="2766.66" style="stroke:#F0F0F0;stroke-width:9.72"/>
	<line x1="1159.48" y1="2766.66" x2="1224.28" y2="2766.66" style="stroke:#F0F0F0;stroke-width:9.72"/>
	<line x1="1256.68" y1="2766.66" x2="1321.48" y2="2766.66" style="stroke:#F0F0F0;stroke-width:9.72"/>
	<line x1="1353.88" y1="2766.66" x2="1418.68" y2="2766.66" style="stroke:#F0F0F0;stroke-width:9.72"/>
	<line x1="1451.08" y1="2766.66" x2="1515.88" y2="2766.66" style="stroke:#F0F0F0;stroke-width:9.72"/>
	<line x1="1548.28" y1="2766.66" x2="1613.08" y2="2766.66" style="stroke:#F0F0F0;stroke-width:9.72"/>
	<line x1="1645.48" y1="2766.66" x2="1710.28" y2="2766.66" style="stroke:#F0F0F0;stroke-width:9.72"/>
	<line x1="1742.68" y1="2766.66" x2="1807.48" y2="2766.66" style="stroke:#F0F0F0;stroke-width:9.72"/>
	<line x1="1839.88" y1="2766.66" x2="1904.68" y2="2766.66" style="stroke:#F0F0F0;stroke-width:9.72"/>
	<line x1="1937.08" y1="2766.66" x2="2001.88" y2="2766.66" style="stroke:#F0F0F0;stroke-width:9.72"/>
	<line x1="2034.28" y1="2766.66" x2="2099.08" y2="2766.66" style="stroke:#F0F0F0;stroke-width:9.72"/>
	<line x1="2131.48" y1="2766.66" x2="2196.28" y2="2766.66" style="stroke:#F0F0F0;stroke-width:9.72"/>
	<line x1="2228.68" y1="2766.66" x2="2293.48" y2="2766.66" style="stroke:#F0F0F0;stroke-width:9.72"/>
	<line x1="2325.88" y1="2766.66" x2="2390.68" y2="2766.66" style="stroke:#F0F0F0;stroke-width:9.72"/>
	<line x1="2423.08" y1="2766.66" x2="2487.88" y2="2766.66" style="stroke:#F0F0F0;stroke-width:9.72"/>
	<line x1="2520.28" y1="2766.66" x2="2585.08" y2="2766.66" style="stroke:#F0F0F0;stroke-width:9.72"/>
	<line x1="2617.48" y1="2766.66" x2="2682.28" y2="2766.66" style="stroke:#F0F0F0;stroke-width:9.72"/>
	<line x1="2714.68" y1="2766.66" x2="2779.48" y2="2766.66" style="stroke:#F0F0F0;stroke-width:9.72"/>
	<line x1="2811.88" y1="2766.66" x2="2876.68" y2="2766.66" style="stroke:#F0F0F0;stroke-width:9.72"/>
	<line x1="2909.08" y1="2766.66" x2="2973.88" y2="2766.66" style="stroke:#F0F0F0;stroke-width:9.72"/>
	<line x1="3006.28" y1="2766.66" x2="3071.08" y2="2766.66" style="stroke:#F0F0F0;stroke-width:9.72"/>
	<line x1="3103.48" y1="2766.66" x2="3168.28" y2="2766.66" style="stroke:#F0F0F0;stroke-width:9.72"/>
	<line x1="3200.68" y1="2766.66" x2="3265.48" y2="2766.66" style="stroke:#F0F0F0;stroke-width:9.72"/>
	<line x1="3297.88" y1="2766.66" x2="3362.68" y2="2766.66" style="stroke:#F0F0F0;stroke-width:9.72"/>
	<line x1="3395.08" y1="2766.66" x2="3459.88" y2="2766.66" style="stroke:#F0F0F0;stroke-width:9.72"/>
	<line x1="3492.28" y1="2766.66" x2="3557.08" y2="2766.66" style="stroke:#F0F0F0;stroke-width:9.72"/>
	<line x1="3589.48" y1="2766.66" x2="3654.28" y2="2766.66" style="stroke:#F0F0F0;stroke-width:9.72"/>
	<line x1="3686.68" y1="2766.66" x2="3751.48" y2="2766.66" style="stroke:#F0F0F0;stroke-width:9.72"/>
	<line x1="3783.88" y1="2766.66" x2="3848.68" y2="2766.66" style="stroke:#F0F0F0;stroke-width:9.72"/>
	<line x1="3881.08" y1="2766.66" x2="3945.88" y2="2766.66" style="stroke:#F0F0F0;stroke-width:9.72"/>
	<line x1="3978.28" y1="2766.66" x2="4043.08" y2="2766.66" style="stroke:#F0F0F0;stroke-width:9.72"/>
	<line x1="4075.48" y1="2766.66" x2="4140.28" y2="2766.66" style="stroke:#F0F0F0;stroke-width:9.72"/>
	<line x1="4172.68" y1="2766.66" x2="4237.48" y2="2766.66" style="stroke:#F0F0F0;stroke-width:9.72"/>
	<line x1="4269.88" y1="2766.66" x2="4334.68" y2="2766.66" style="stroke:#F0F0F0;stroke-width:9.72"/>
	<line x1="4367.08" y1="2766.66" x2="4431.88" y2="2766.66" style="stroke:#F0F0F0;stroke-width:9.72"/>
	<line x1="4464.28" y1="2766.66" x2="4529.08" y2="2766.66" style="stroke:#F0F0F0;stroke-width:9.72"/>
	<line x1="4561.48" y1="2766.66" x2="4626.28" y2="2766.66" style="stroke:#F0F0F0;stroke-width:9.72"/>
	<line x1="4658.68" y1="2766.66" x2="4723.48" y2="2766.66" style="stroke:#F0F0F0;stroke-width:9.72"/>
	<line x1="4755.88" y1="2766.66" x2="4820.68" y2="2766.66" style="stroke:#F0F0F0;stroke-width:9.72"/>
	<line x1="4853.08" y1="2766.66" x2="4917.88" y2="2766.66" style="stroke:#F0F0F0;stroke-width:9.72"/>
	<line x1="4950.28" y1="2766.66" x2="5015.08" y2="2766.66" style="stroke:#F0F0F0;stroke-width:9.72"/>
	<line x1="5047.48" y1="2766.66" x2="5112.28" y2="2766.66" style="stroke:#F0F0F0;stroke-width:9.72"/>
	<line x1="5144.68" y1="2766.66" x2="5209.48" y2="2766.66" style="stroke:#F0F0F0;stroke-width:9.72"/>
	<line x1="5241.88" y1="2766.66" x2="5286.60" y2="2766.66" style="stroke:#F0F0F0;stroke-width:9.72"/>
	<line x1="479.08" y1="1971.51" x2="543.88" y2="1971.51" style="stroke:#F0F0F0;stroke-width:9.72"/>
	<line x1="576.28" y1="1971.51" x2="641.08" y2="1971.51" style="stroke:#F0F0F0;stroke-width:9.72"/>
	<line x1="673.48" y1="1971.51" x2="738.28" y2="1971.51" style="stroke:#F0F0F0;stroke-width:9.72"/>
	<line x1="770.68" y1="1971.51" x2="835.48" y2="1971.51" style="stroke:#F0F0F0;stroke-width:9.72"/>
	<line x1="867.88" y1="1971.51" x2="932.68" y2="1971.51" style="stroke:#F0F0F0;stroke-width:9.72"/>
	<line x1="965.08" y1="1971.51" x2="1029.88" y2="1971.51" style="stroke:#F0F0F0;stroke-width:9.72"/>
	<line x1="1062.28" y1="1971.51" x2="1127.08" y2="1971.51" style="stroke:#F0F0F0;stroke-width:9.72"/>
	<line x1="1159.48" y1="1971.51" x2="1224.28" y2="1971.51" style="stroke:#F0F0F0;stroke-width:9.72"/>
	<line x1="1256.68" y1="1971.51" x2="1321.48" y2="1971.51" style="stroke:#F0F0F0;stroke-width:9.72"/>
	<line x1="1353.88" y1="1971.51" x2="1418.68" y2="1971.51" style="stroke:#F0F0F0;stroke-width:9.72"/>
	<line x1="1451.08" y1="1971.51" x2="1515.88" y2="1971.51" style="stroke:#F0F0F0;stroke-width:9.72"/>
	<line x1="1548.28" y1="1971.51" x2="1613.08" y2="1971.51" style="stroke:#F0F0F0;stroke-width:9.72"/>
	<line x1="1645.48" y1="1971.51" x2="1710.28" y2="1971.51" style="stroke:#F0F0F0;stroke-width:9.72"/>
	<line x1="1742.68" y1="1971.51" x2="1807.48" y2="1971.51" style="stroke:#F0F0F0;stroke-width:9.72"/>
	<line x1="1839.88" y1="1971.51" x2="1904.68" y2="1971.51" style="stroke:#F0F0F0;stroke-width:9.72"/>
	<line x1="1937.08" y1="1971.51" x2="2001.88" y2="1971.51" style="stroke:#F0F0F0;stroke-width:9.72"/>
	<line x1="2034.28" y1="1971.51" x2="2099.08" y2="1971.51" style="stroke:#F0F0F0;stroke-width:9.72"/>
	<line x1="2131.48" y1="1971.51" x2="2196.28" y2="1971.51" style="stroke:#F0F0F0;stroke-width:9.72"/>
	<line x1="2228.68" y1="1971.51" x2="2293.48" y2="1971.51" style="stroke:#F0F0F0;stroke-width:9.72"/>
	<line x1="2325.88" y1="1971.51" x2="2390.68" y2="1971.51" style="stroke:#F0F0F0;stroke-width:9.72"/>
	<line x1="2423.08" y1="1971.51" x2="2487.88" y2="1971.51" style="stroke:#F0F0F0;stroke-width:9.72"/>
	<line x1="2520.28" y1="1971.51" x2="2585.08" y2="1971.51" style="stroke:#F0F0F0;stroke-width:9.72"/>
	<line x1="2617.48" y1="1971.51" x2="2682.28" y2="1971.51" style="stroke:#F0F0F0;stroke-width:9.72"/>
	<line x1="2714.68" y1="1971.51" x2="2779.48" y2="1971.51" style="stroke:#F0F0F0;stroke-width:9.72"/>
	<line x1="2811.88" y1="1971.51" x2="2876.68" y2="1971.51" style="stroke:#F0F0F0;stroke-width:9.72"/>
	<line x1="2909.08" y1="1971.51" x2="2973.88" y2="1971.51" style="stroke:#F0F0F0;stroke-width:9.72"/>
	<line x1="3006.28" y1="1971.51" x2="3071.08" y2="1971.51" style="stroke:#F0F0F0;stroke-width:9.72"/>
	<line x1="3103.48" y1="1971.51" x2="3168.28" y2="1971.51" style="stroke:#F0F0F0;stroke-width:9.72"/>
	<line x1="3200.68" y1="1971.51" x2="3265.48" y2="1971.51" style="stroke:#F0F0F0;stroke-width:9.72"/>
	<line x1="3297.88" y1="1971.51" x2="3362.68" y2="1971.51" style="stroke:#F0F0F0;stroke-width:9.72"/>
	<line x1="3395.08" y1="1971.51" x2="3459.88" y2="1971.51" style="stroke:#F0F0F0;stroke-width:9.72"/>
	<line x1="3492.28" y1="1971.51" x2="3557.08" y2="1971.51" style="stroke:#F0F0F0;stroke-width:9.72"/>
	<line x1="3589.48" y1="1971.51" x2="3654.28" y2="1971.51" style="stroke:#F0F0F0;stroke-width:9.72"/>
	<line x1="3686.68" y1="1971.51" x2="3751.48" y2="1971.51" style="stroke:#F0F0F0;stroke-width:9.72"/>
	<line x1="3783.88" y1="1971.51" x2="3848.68" y2="1971.51" style="stroke:#F0F0F0;stroke-width:9.72"/>
	<line x1="3881.08" y1="1971.51" x2="3945.88" y2="1971.51" style="stroke:#F0F0F0;stroke-width:9.72"/>
	<line x1="3978.28" y1="1971.51" x2="4043.08" y2="1971.51" style="stroke:#F0F0F0;stroke-width:9.72"/>
	<line x1="4075.48" y1="1971.51" x2="4140.28" y2="1971.51" style="stroke:#F0F0F0;stroke-width:9.72"/>
	<line x1="4172.68" y1="1971.51" x2="4237.48" y2="1971.51" style="stroke:#F0F0F0;stroke-width:9.72"/>
	<line x1="4269.88" y1="1971.51" x2="4334.68" y2="1971.51" style="stroke:#F0F0F0;stroke-width:9.72"/>
	<line x1="4367.08" y1="1971.51" x2="4431.88" y2="1971.51" style="stroke:#F0F0F0;stroke-width:9.72"/>
	<line x1="4464.28" y1="1971.51" x2="4529.08" y2="1971.51" style="stroke:#F0F0F0;stroke-width:9.72"/>
	<line x1="4561.48" y1="1971.51" x2="4626.28" y2="1971.51" style="stroke:#F0F0F0;stroke-width:9.72"/>
	<line x1="4658.68" y1="1971.51" x2="4723.48" y2="1971.51" style="stroke:#F0F0F0;stroke-width:9.72"/>
	<line x1="4755.88" y1="1971.51" x2="4820.68" y2="1971.51" style="stroke:#F0F0F0;stroke-width:9.72"/>
	<line x1="4853.08" y1="1971.51" x2="4917.88" y2="1971.51" style="stroke:#F0F0F0;stroke-width:9.72"/>
	<line x1="4950.28" y1="1971.51" x2="5015.08" y2="1971.51" style="stroke:#F0F0F0;stroke-width:9.72"/>
	<line x1="5047.48" y1="1971.51" x2="5112.28" y2="1971.51" style="stroke:#F0F0F0;stroke-width:9.72"/>
	<line x1="5144.68" y1="1971.51" x2="5209.48" y2="1971.51" style="stroke:#F0F0F0;stroke-width:9.72"/>
	<line x1="5241.88" y1="1971.51" x2="5286.60" y2="1971.51" style="stroke:#F0F0F0;stroke-width:9.72"/>
	<line x1="479.08" y1="1176.19" x2="543.88" y2="1176.19" style="stroke:#F0F0F0;stroke-width:9.72"/>
	<line x1="576.28" y1="1176.19" x2="641.08" y2="1176.19" style="stroke:#F0F0F0;stroke-width:9.72"/>
	<line x1="673.48" y1="1176.19" x2="738.28" y2="1176.19" style="stroke:#F0F0F0;stroke-width:9.72"/>
	<line x1="770.68" y1="1176.19" x2="835.48" y2="1176.19" style="stroke:#F0F0F0;stroke-width:9.72"/>
	<line x1="867.88" y1="1176.19" x2="932.68" y2="1176.19" style="stroke:#F0F0F0;stroke-width:9.72"/>
	<line x1="965.08" y1="1176.19" x2="1029.88" y2="1176.19" style="stroke:#F0F0F0;stroke-width:9.72"/>
	<line x1="1062.28" y1="1176.19" x2="1127.08" y2="1176.19" style="stroke:#F0F0F0;stroke-width:9.72"/>
	<line x1="1159.48" y1="1176.19" x2="1224.28" y2="1176.19" style="stroke:#F0F0F0;stroke-width:9.72"/>
	<line x1="1256.68" y1="1176.19" x2="1321.48" y2="1176.19" style="stroke:#F0F0F0;stroke-width:9.72"/>
	<line x1="1353.88" y1="1176.19" x2="1418.68" y2="1176.19" style="stroke:#F0F0F0;stroke-width:9.72"/>
	<line x1="1451.08" y1="1176.19" x2="1515.88" y2="1176.19" style="stroke:#F0F0F0;stroke-width:9.72"/>
	<line x1="1548.28" y1="1176.19" x2="1613.08" y2="1176.19" style="stroke:#F0F0F0;stroke-width:9.72"/>
	<line x1="1645.48" y1="1176.19" x2="1710.28" y2="1176.19" style="stroke:#F0F0F0;stroke-width:9.72"/>
	<line x1="1742.68" y1="1176.19" x2="1807.48" y2="1176.19" style="stroke:#F0F0F0;stroke-width:9.72"/>
	<line x1="1839.88" y1="1176.19" x2="1904.68" y2="1176.19" style="stroke:#F0F0F0;stroke-width:9.72"/>
	<line x1="1937.08" y1="1176.19" x2="2001.88" y2="1176.19" style="stroke:#F0F0F0;stroke-width:9.72"/>
	<line x1="2034.28" y1="1176.19" x2="2099.08" y2="1176.19" style="stroke:#F0F0F0;stroke-width:9.72"/>
	<line x1="2131.48" y1="1176.19" x2="2196.28" y2="1176.19" style="stroke:#F0F0F0;stroke-width:9.72"/>
	<line x1="2228.68" y1="1176.19" x2="2293.48" y2="1176.19" style="stroke:#F0F0F0;stroke-width:9.72"/>
	<line x1="2325.88" y1="1176.19" x2="2390.68" y2="1176.19" style="stroke:#F0F0F0;stroke-width:9.72"/>
	<line x1="2423.08" y1="1176.19" x2="2487.88" y2="1176.19" style="stroke:#F0F0F0;stroke-width:9.72"/>
	<line x1="2520.28" y1="1176.19" x2="2585.08" y2="1176.19" style="stroke:#F0F0F0;stroke-width:9.72"/>
	<line x1="2617.48" y1="1176.19" x2="2682.28" y2="1176.19" style="stroke:#F0F0F0;stroke-width:9.72"/>
	<line x1="2714.68" y1="1176.19" x2="2779.48" y2="1176.19" style="stroke:#F0F0F0;stroke-width:9.72"/>
	<line x1="2811.88" y1="1176.19" x2="2876.68" y2="1176.19" style="stroke:#F0F0F0;stroke-width:9.72"/>
	<line x1="2909.08" y1="1176.19" x2="2973.88" y2="1176.19" style="stroke:#F0F0F0;stroke-width:9.72"/>
	<line x1="3006.28" y1="1176.19" x2="3071.08" y2="1176.19" style="stroke:#F0F0F0;stroke-width:9.72"/>
	<line x1="3103.48" y1="1176.19" x2="3168.28" y2="1176.19" style="stroke:#F0F0F0;stroke-width:9.72"/>
	<line x1="3200.68" y1="1176.19" x2="3265.48" y2="1176.19" style="stroke:#F0F0F0;stroke-width:9.72"/>
	<line x1="3297.88" y1="1176.19" x2="3362.68" y2="1176.19" style="stroke:#F0F0F0;stroke-width:9.72"/>
	<line x1="3395.08" y1="1176.19" x2="3459.88" y2="1176.19" style="stroke:#F0F0F0;stroke-width:9.72"/>
	<line x1="3492.28" y1="1176.19" x2="3557.08" y2="1176.19" style="stroke:#F0F0F0;stroke-width:9.72"/>
	<line x1="3589.48" y1="1176.19" x2="3654.28" y2="1176.19" style="stroke:#F0F0F0;stroke-width:9.72"/>
	<line x1="3686.68" y1="1176.19" x2="3751.48" y2="1176.19" style="stroke:#F0F0F0;stroke-width:9.72"/>
	<line x1="3783.88" y1="1176.19" x2="3848.68" y2="1176.19" style="stroke:#F0F0F0;stroke-width:9.72"/>
	<line x1="3881.08" y1="1176.19" x2="3945.88" y2="1176.19" style="stroke:#F0F0F0;stroke-width:9.72"/>
	<line x1="3978.28" y1="1176.19" x2="4043.08" y2="1176.19" style="stroke:#F0F0F0;stroke-width:9.72"/>
	<line x1="4075.48" y1="1176.19" x2="4140.28" y2="1176.19" style="stroke:#F0F0F0;stroke-width:9.72"/>
	<line x1="4172.68" y1="1176.19" x2="4237.48" y2="1176.19" style="stroke:#F0F0F0;stroke-width:9.72"/>
	<line x1="4269.88" y1="1176.19" x2="4334.68" y2="1176.19" style="stroke:#F0F0F0;stroke-width:9.72"/>
	<line x1="4367.08" y1="1176.19" x2="4431.88" y2="1176.19" style="stroke:#F0F0F0;stroke-width:9.72"/>
	<line x1="4464.28" y1="1176.19" x2="4529.08" y2="1176.19" style="stroke:#F0F0F0;stroke-width:9.72"/>
	<line x1="4561.48" y1="1176.19" x2="4626.28" y2="1176.19" style="stroke:#F0F0F0;stroke-width:9.72"/>
	<line x1="4658.68" y1="1176.19" x2="4723.48" y2="1176.19" style="stroke:#F0F0F0;stroke-width:9.72"/>
	<line x1="4755.88" y1="1176.19" x2="4820.68" y2="1176.19" style="stroke:#F0F0F0;stroke-width:9.72"/>
	<line x1="4853.08" y1="1176.19" x2="4917.88" y2="1176.19" style="stroke:#F0F0F0;stroke-width:9.72"/>
	<line x1="4950.28" y1="1176.19" x2="5015.08" y2="1176.19" style="stroke:#F0F0F0;stroke-width:9.72"/>
	<line x1="5047.48" y1="1176.19" x2="5112.28" y2="1176.19" style="stroke:#F0F0F0;stroke-width:9.72"/>
	<line x1="5144.68" y1="1176.19" x2="5209.48" y2="1176.19" style="stroke:#F0F0F0;stroke-width:9.72"/>
	<line x1="5241.88" y1="1176.19" x2="5286.60" y2="1176.19" style="stroke:#F0F0F0;stroke-width:9.72"/>
	<line x1="479.08" y1="381.04" x2="543.88" y2="381.04" style="stroke:#F0F0F0;stroke-width:9.72"/>
	<line x1="576.28" y1="381.04" x2="641.08" y2="381.04" style="stroke:#F0F0F0;stroke-width:9.72"/>
	<line x1="673.48" y1="381.04" x2="738.28" y2="381.04" style="stroke:#F0F0F0;stroke-width:9.72"/>
	<line x1="770.68" y1="381.04" x2="835.48" y2="381.04" style="stroke:#F0F0F0;stroke-width:9.72"/>
	<line x1="867.88" y1="381.04" x2="932.68" y2="381.04" style="stroke:#F0F0F0;stroke-width:9.72"/>
	<line x1="965.08" y1="381.04" x2="1029.88" y2="381.04" style="stroke:#F0F0F0;stroke-width:9.72"/>
	<line x1="1062.28" y1="381.04" x2="1127.08" y2="381.04" style="stroke:#F0F0F0;stroke-width:9.72"/>
	<line x1="1159.48" y1="381.04" x2="1224.28" y2="381.04" style="stroke:#F0F0F0;stroke-width:9.72"/>
	<line x1="1256.68" y1="381.04" x2="1321.48" y2="381.04" style="stroke:#F0F0F0;stroke-width:9.72"/>
	<line x1="1353.88" y1="381.04" x2="1418.68" y2="381.04" style="stroke:#F0F0F0;stroke-width:9.72"/>
	<line x1="1451.08" y1="381.04" x2="1515.88" y2="381.04" style="stroke:#F0F0F0;stroke-width:9.72"/>
	<line x1="1548.28" y1="381.04" x2="1613.08" y2="381.04" style="stroke:#F0F0F0;stroke-width:9.72"/>
	<line x1="1645.48" y1="381.04" x2="1710.28" y2="381.04" style="stroke:#F0F0F0;stroke-width:9.72"/>
	<line x1="1742.68" y1="381.04" x2="1807.48" y2="381.04" style="stroke:#F0F0F0;stroke-width:9.72"/>
	<line x1="1839.88" y1="381.04" x2="1904.68" y2="381.04" style="stroke:#F0F0F0;stroke-width:9.72"/>
	<line x1="1937.08" y1="381.04" x2="2001.88" y2="381.04" style="stroke:#F0F0F0;stroke-width:9.72"/>
	<line x1="2034.28" y1="381.04" x2="2099.08" y2="381.04" style="stroke:#F0F0F0;stroke-width:9.72"/>
	<line x1="2131.48" y1="381.04" x2="2196.28" y2="381.04" style="stroke:#F0F0F0;stroke-width:9.72"/>
	<line x1="2228.68" y1="381.04" x2="2293.48" y2="381.04" style="stroke:#F0F0F0;stroke-width:9.72"/>
	<line x1="2325.88" y1="381.04" x2="2390.68" y2="381.04" style="stroke:#F0F0F0;stroke-width:9.72"/>
	<line x1="2423.08" y1="381.04" x2="2487.88" y2="381.04" style="stroke:#F0F0F0;stroke-width:9.72"/>
	<line x1="2520.28" y1="381.04" x2="2585.08" y2="381.04" style="stroke:#F0F0F0;stroke-width:9.72"/>
	<line x1="2617.48" y1="381.04" x2="2682.28" y2="381.04" style="stroke:#F0F0F0;stroke-width:9.72"/>
	<line x1="2714.68" y1="381.04" x2="2779.48" y2="381.04" style="stroke:#F0F0F0;stroke-width:9.72"/>
	<line x1="2811.88" y1="381.04" x2="2876.68" y2="381.04" style="stroke:#F0F0F0;stroke-width:9.72"/>
	<line x1="2909.08" y1="381.04" x2="2973.88" y2="381.04" style="stroke:#F0F0F0;stroke-width:9.72"/>
	<line x1="3006.28" y1="381.04" x2="3071.08" y2="381.04" style="stroke:#F0F0F0;stroke-width:9.72"/>
	<line x1="3103.48" y1="381.04" x2="3168.28" y2="381.04" style="stroke:#F0F0F0;stroke-width:9.72"/>
	<line x1="3200.68" y1="381.04" x2="3265.48" y2="381.04" style="stroke:#F0F0F0;stroke-width:9.72"/>
	<line x1="3297.88" y1="381.04" x2="3362.68" y2="381.04" style="stroke:#F0F0F0;stroke-width:9.72"/>
	<line x1="3395.08" y1="381.04" x2="3459.88" y2="381.04" style="stroke:#F0F0F0;stroke-width:9.72"/>
	<line x1="3492.28" y1="381.04" x2="3557.08" y2="381.04" style="stroke:#F0F0F0;stroke-width:9.72"/>
	<line x1="3589.48" y1="381.04" x2="3654.28" y2="381.04" style="stroke:#F0F0F0;stroke-width:9.72"/>
	<line x1="3686.68" y1="381.04" x2="3751.48" y2="381.04" style="stroke:#F0F0F0;stroke-width:9.72"/>
	<line x1="3783.88" y1="381.04" x2="3848.68" y2="381.04" style="stroke:#F0F0F0;stroke-width:9.72"/>
	<line x1="3881.08" y1="381.04" x2="3945.88" y2="381.04" style="stroke:#F0F0F0;stroke-width:9.72"/>
	<line x1="3978.28" y1="381.04" x2="4043.08" y2="381.04" style="stroke:#F0F0F0;stroke-width:9.72"/>
	<line x1="4075.48" y1="381.04" x2="4140.28" y2="381.04" style="stroke:#F0F0F0;stroke-width:9.72"/>
	<line x1="4172.68" y1="381.04" x2="4237.48" y2="381.04" style="stroke:#F0F0F0;stroke-width:9.72"/>
	<line x1="4269.88" y1="381.04" x2="4334.68" y2="381.04" style="stroke:#F0F0F0;stroke-width:9.72"/>
	<line x1="4367.08" y1="381.04" x2="4431.88" y2="381.04" style="stroke:#F0F0F0;stroke-width:9.72"/>
	<line x1="4464.28" y1="381.04" x2="4529.08" y2="381.04" style="stroke:#F0F0F0;stroke-width:9.72"/>
	<line x1="4561.48" y1="381.04" x2="4626.28" y2="381.04" style="stroke:#F0F0F0;stroke-width:9.72"/>
	<line x1="4658.68" y1="381.04" x2="4723.48" y2="381.04" style="stroke:#F0F0F0;stroke-width:9.72"/>
	<line x1="4755.88" y1="381.04" x2="4820.68" y2="381.04" style="stroke:#F0F0F0;stroke-width:9.72"/>
	<line x1="4853.08" y1="381.04" x2="4917.88" y2="381.04" style="stroke:#F0F0F0;stroke-width:9.72"/>
	<line x1="4950.28" y1="381.04" x2="5015.08" y2="381.04" style="stroke:#F0F0F0;stroke-width:9.72"/>
	<line x1="5047.48" y1="381.04" x2="5112.28" y2="381.04" style="stroke:#F0F0F0;stroke-width:9.72"/>
	<line x1="5144.68" y1="381.04" x2="5209.48" y2="381.04" style="stroke:#F0F0F0;stroke-width:9.72"/>
	<line x1="5241.88" y1="381.04" x2="5286.60" y2="381.04" style="stroke:#F0F0F0;stroke-width:9.72"/>
	<line x1="1713.99" y1="2766.66" x2="1713.99" y2="2701.86" style="stroke:#F0F0F0;stroke-width:9.72"/>
	<line x1="1713.99" y1="2669.46" x2="1713.99" y2="2604.66" style="stroke:#F0F0F0;stroke-width:9.72"/>
	<line x1="1713.99" y1="2572.26" x2="1713.99" y2="2507.46" style="stroke:#F0F0F0;stroke-width:9.72"/>
	<line x1="1713.99" y1="2475.06" x2="1713.99" y2="2410.26" style="stroke:#F0F0F0;stroke-width:9.72"/>
	<line x1="1713.99" y1="2377.86" x2="1713.99" y2="2313.06" style="stroke:#F0F0F0;stroke-width:9.72"/>
	<line x1="1713.99" y1="2280.66" x2="1713.99" y2="2215.86" style="stroke:#F0F0F0;stroke-width:9.72"/>
	<line x1="1713.99" y1="2183.46" x2="1713.99" y2="2118.66" style="stroke:#F0F0F0;stroke-width:9.72"/>
	<line x1="1713.99" y1="2086.26" x2="1713.99" y2="2021.46" style="stroke:#F0F0F0;stroke-width:9.72"/>
	<line x1="1713.99" y1="1989.06" x2="1713.99" y2="1924.26" style="stroke:#F0F0F0;stroke-width:9.72"/>
	<line x1="1713.99" y1="1891.86" x2="1713.99" y2="1827.06" style="stroke:#F0F0F0;stroke-width:9.72"/>
	<line x1="1713.99" y1="1794.66" x2="1713.99" y2="1729.86" style="stroke:#F0F0F0;stroke-width:9.72"/>
	<line x1="1713.99" y1="1697.46" x2="1713.99" y2="1632.66" style="stroke:#F0F0F0;stroke-width:9.72"/>
	<line x1="1713.99" y1="1600.26" x2="1713.99" y2="1535.46" style="stroke:#F0F0F0;stroke-width:9.72"/>
	<line x1="1713.99" y1="1503.06" x2="1713.99" y2="1438.26" style="stroke:#F0F0F0;stroke-width:9.72"/>
	<line x1="1713.99" y1="1405.86" x2="1713.99" y2="1341.06" style="stroke:#F0F0F0;stroke-width:9.72"/>
	<line x1="1713.99" y1="1308.66" x2="1713.99" y2="1243.86" style="stroke:#F0F0F0;stroke-width:9.72"/>
	<line x1="1713.99" y1="1211.46" x2="1713.99" y2="1146.66" style="stroke:#F0F0F0;stroke-width:9.72"/>
	<line x1="1713.99" y1="1114.26" x2="1713.99" y2="1049.46" style="stroke:#F0F0F0;stroke-width:9.72"/>
	<line x1="1713.99" y1="1017.06" x2="1713.99" y2="952.26" style="stroke:#F0F0F0;stroke-width:9.72"/>
	<line x1="1713.99" y1="919.86" x2="1713.99" y2="855.06" style="stroke:#F0F0F0;stroke-width:9.72"/>
	<line x1="1713.99" y1="822.66" x2="1713.99" y2="757.86" style="stroke:#F0F0F0;stroke-width:9.72"/>
	<line x1="1713.99" y1="725.46" x2="1713.99" y2="660.66" style="stroke:#F0F0F0;stroke-width:9.72"/>
	<line x1="1713.99" y1="628.26" x2="1713.99" y2="563.46" style="stroke:#F0F0F0;stroke-width:9.72"/>
	<line x1="1713.99" y1="531.06" x2="1713.99" y2="466.26" style="stroke:#F0F0F0;stroke-width:9.72"/>
	<line x1="1713.99" y1="433.86" x2="1713.99" y2="369.06" style="stroke:#F0F0F0;stroke-width:9.72"/>
	<line x1="1713.99" y1="336.66" x2="1713.99" y2="309.82" style="stroke:#F0F0F0;stroke-width:9.72"/>
	<line x1="2877.69" y1="2766.66" x2="2877.69" y2="2701.86" style="stroke:#F0F0F0;stroke-width:9.72"/>
	<line x1="2877.69" y1="2669.46" x2="2877.69" y2="2604.66" style="stroke:#F0F0F0;stroke-width:9.72"/>
	<line x1="2877.69" y1="2572.26" x2="2877.69" y2="2507.46" style="stroke:#F0F0F0;stroke-width:9.72"/>
	<line x1="2877.69" y1="2475.06" x2="2877.69" y2="2410.26" style="stroke:#F0F0F0;stroke-width:9.72"/>
	<line x1="2877.69" y1="2377.86" x2="2877.69" y2="2313.06" style="stroke:#F0F0F0;stroke-width:9.72"/>
	<line x1="2877.69" y1="2280.66" x2="2877.69" y2="2215.86" style="stroke:#F0F0F0;stroke-width:9.72"/>
	<line x1="2877.69" y1="2183.46" x2="2877.69" y2="2118.66" style="stroke:#F0F0F0;stroke-width:9.72"/>
	<line x1="2877.69" y1="2086.26" x2="2877.69" y2="2021.46" style="stroke:#F0F0F0;stroke-width:9.72"/>
	<line x1="2877.69" y1="1989.06" x2="2877.69" y2="1924.26" style="stroke:#F0F0F0;stroke-width:9.72"/>
	<line x1="2877.69" y1="1891.86" x2="2877.69" y2="1827.06" style="stroke:#F0F0F0;stroke-width:9.72"/>
	<line x1="2877.69" y1="1794.66" x2="2877.69" y2="1729.86" style="stroke:#F0F0F0;stroke-width:9.72"/>
	<line x1="2877.69" y1="1697.46" x2="2877.69" y2="1632.66" style="stroke:#F0F0F0;stroke-width:9.72"/>
	<line x1="2877.69" y1="1600.26" x2="2877.69" y2="1535.46" style="stroke:#F0F0F0;stroke-width:9.72"/>
	<line x1="2877.69" y1="1503.06" x2="2877.69" y2="1438.26" style="stroke:#F0F0F0;stroke-width:9.72"/>
	<line x1="2877.69" y1="1405.86" x2="2877.69" y2="1341.06" style="stroke:#F0F0F0;stroke-width:9.72"/>
	<line x1="2877.69" y1="1308.66" x2="2877.69" y2="1243.86" style="stroke:#F0F0F0;stroke-width:9.72"/>
	<line x1="2877.69" y1="1211.46" x2="2877.69" y2="1146.66" style="stroke:#F0F0F0;stroke-width:9.72"/>
	<line x1="2877.69" y1="1114.26" x2="2877.69" y2="1049.46" style="stroke:#F0F0F0;stroke-width:9.72"/>
	<line x1="2877.69" y1="1017.06" x2="2877.69" y2="952.26" style="stroke:#F0F0F0;stroke-width:9.72"/>
	<line x1="2877.69" y1="919.86" x2="2877.69" y2="855.06" style="stroke:#F0F0F0;stroke-width:9.72"/>
	<line x1="2877.69" y1="822.66" x2="2877.69" y2="757.86" style="stroke:#F0F0F0;stroke-width:9.72"/>
	<line x1="2877.69" y1="725.46" x2="2877.69" y2="660.66" style="stroke:#F0F0F0;stroke-width:9.72"/>
	<line x1="2877.69" y1="628.26" x2="2877.69" y2="563.46" style="stroke:#F0F0F0;stroke-width:9.72"/>
	<line x1="2877.69" y1="531.06" x2="2877.69" y2="466.26" style="stroke:#F0F0F0;stroke-width:9.72"/>
	<line x1="2877.69" y1="433.86" x2="2877.69" y2="369.06" style="stroke:#F0F0F0;stroke-width:9.72"/>
	<line x1="2877.69" y1="336.66" x2="2877.69" y2="309.82" style="stroke:#F0F0F0;stroke-width:9.72"/>
	<line x1="4041.23" y1="2766.66" x2="4041.23" y2="2701.86" style="stroke:#F0F0F0;stroke-width:9.72"/>
	<line x1="4041.23" y1="2669.46" x2="4041.23" y2="2604.66" style="stroke:#F0F0F0;stroke-width:9.72"/>
	<line x1="4041.23" y1="2572.26" x2="4041.23" y2="2507.46" style="stroke:#F0F0F0;stroke-width:9.72"/>
	<line x1="4041.23" y1="2475.06" x2="4041.23" y2="2410.26" style="stroke:#F0F0F0;stroke-width:9.72"/>
	<line x1="4041.23" y1="2377.86" x2="4041.23" y2="2313.06" style="stroke:#F0F0F0;stroke-width:9.72"/>
	<line x1="4041.23" y1="2280.66" x2="4041.23" y2="2215.86" style="stroke:#F0F0F0;stroke-width:9.72"/>
	<line x1="4041.23" y1="2183.46" x2="4041.23" y2="2118.66" style="stroke:#F0F0F0;stroke-width:9.72"/>
	<line x1="4041.23" y1="2086.26" x2="4041.23" y2="2021.46" style="stroke:#F0F0F0;stroke-width:9.72"/>
	<line x1="4041.23" y1="1989.06" x2="4041.23" y2="1924.26" style="stroke:#F0F0F0;stroke-width:9.72"/>
	<line x1="4041.23" y1="1891.86" x2="4041.23" y2="1827.06" style="stroke:#F0F0F0;stroke-width:9.72"/>
	<line x1="4041.23" y1="1794.66" x2="4041.23" y2="1729.86" style="stroke:#F0F0F0;stroke-width:9.72"/>
	<line x1="4041.23" y1="1697.46" x2="4041.23" y2="1632.66" style="stroke:#F0F0F0;stroke-width:9.72"/>
	<line x1="4041.23" y1="1600.26" x2="4041.23" y2="1535.46" style="stroke:#F0F0F0;stroke-width:9.72"/>
	<line x1="4041.23" y1="1503.06" x2="4041.23" y2="1438.26" style="stroke:#F0F0F0;stroke-width:9.72"/>
	<line x1="4041.23" y1="1405.86" x2="4041.23" y2="1341.06" style="stroke:#F0F0F0;stroke-width:9.72"/>
	<line x1="4041.23" y1="1308.66" x2="4041.23" y2="1243.86" style="stroke:#F0F0F0;stroke-width:9.72"/>
	<line x1="4041.23" y1="1211.46" x2="4041.23" y2="1146.66" style="stroke:#F0F0F0;stroke-width:9.72"/>
	<line x1="4041.23" y1="1114.26" x2="4041.23" y2="1049.46" style="stroke:#F0F0F0;stroke-width:9.72"/>
	<line x1="4041.23" y1="1017.06" x2="4041.23" y2="952.26" style="stroke:#F0F0F0;stroke-width:9.72"/>
	<line x1="4041.23" y1="919.86" x2="4041.23" y2="855.06" style="stroke:#F0F0F0;stroke-width:9.72"/>
	<line x1="4041.23" y1="822.66" x2="4041.23" y2="757.86" style="stroke:#F0F0F0;stroke-width:9.72"/>
	<line x1="4041.23" y1="725.46" x2="4041.23" y2="660.66" style="stroke:#F0F0F0;stroke-width:9.72"/>
	<line x1="4041.23" y1="628.26" x2="4041.23" y2="563.46" style="stroke:#F0F0F0;stroke-width:9.72"/>
	<line x1="4041.23" y1="531.06" x2="4041.23" y2="466.26" style="stroke:#F0F0F0;stroke-width:9.72"/>
	<line x1="4041.23" y1="433.86" x2="4041.23" y2="369.06" style="stroke:#F0F0F0;stroke-width:9.72"/>
	<line x1="4041.23" y1="336.66" x2="4041.23" y2="309.82" style="stroke:#F0F0F0;stroke-width:9.72"/>
	<line x1="5204.93" y1="2766.66" x2="5204.93" y2="2701.86" style="stroke:#F0F0F0;stroke-width:9.72"/>
	<line x1="5204.93" y1="2669.46" x2="5204.93" y2="2604.66" style="stroke:#F0F0F0;stroke-width:9.72"/>
	<line x1="5204.93" y1="2572.26" x2="5204.93" y2="2507.46" style="stroke:#F0F0F0;stroke-width:9.72"/>
	<line x1="5204.93" y1="2475.06" x2="5204.93" y2="2410.26" style="stroke:#F0F0F0;stroke-width:9.72"/>
	<line x1="5204.93" y1="2377.86" x2="5204.93" y2="2313.06" style="stroke:#F0F0F0;stroke-width:9.72"/>
	<line x1="5204.93" y1="2280.66" x2="5204.93" y2="2215.86" style="stroke:#F0F0F0;stroke-width:9.72"/>
	<line x1="5204.93" y1="2183.46" x2="5204.93" y2="2118.66" style="stroke:#F0F0F0;stroke-width:9.72"/>
	<line x1="5204.93" y1="2086.26" x2="5204.93" y2="2021.46" style="stroke:#F0F0F0;stroke-width:9.72"/>
	<line x1="5204.93" y1="1989.06" x2="5204.93" y2="1924.26" style="stroke:#F0F0F0;stroke-width:9.72"/>
	<line x1="5204.93" y1="1891.86" x2="5204.93" y2="1827.06" style="stroke:#F0F0F0;stroke-width:9.72"/>
	<line x1="5204.93" y1="1794.66" x2="5204.93" y2="1729.86" style="stroke:#F0F0F0;stroke-width:9.72"/>
	<line x1="5204.93" y1="1697.46" x2="5204.93" y2="1632.66" style="stroke:#F0F0F0;stroke-width:9.72"/>
	<line x1="5204.93" y1="1600.26" x2="5204.93" y2="1535.46" style="stroke:#F0F0F0;stroke-width:9.72"/>
	<line x1="5204.93" y1="1503.06" x2="5204.93" y2="1438.26" style="stroke:#F0F0F0;stroke-width:9.72"/>
	<line x1="5204.93" y1="1405.86" x2="5204.93" y2="1341.06" style="stroke:#F0F0F0;stroke-width:9.72"/>
	<line x1="5204.93" y1="1308.66" x2="5204.93" y2="1243.86" style="stroke:#F0F0F0;stroke-width:9.72"/>
	<line x1="5204.93" y1="1211.46" x2="5204.93" y2="1146.66" style="stroke:#F0F0F0;stroke-width:9.72"/>
	<line x1="5204.93" y1="1114.26" x2="5204.93" y2="1049.46" style="stroke:#F0F0F0;stroke-width:9.72"/>
	<line x1="5204.93" y1="1017.06" x2="5204.93" y2="952.26" style="stroke:#F0F0F0;stroke-width:9.72"/>
	<line x1="5204.93" y1="919.86" x2="5204.93" y2="855.06" style="stroke:#F0F0F0;stroke-width:9.72"/>
	<line x1="5204.93" y1="822.66" x2="5204.93" y2="757.86" style="stroke:#F0F0F0;stroke-width:9.72"/>
	<line x1="5204.93" y1="725.46" x2="5204.93" y2="660.66" style="stroke:#F0F0F0;stroke-width:9.72"/>
	<line x1="5204.93" y1="628.26" x2="5204.93" y2="563.46" style="stroke:#F0F0F0;stroke-width:9.72"/>
	<line x1="5204.93" y1="531.06" x2="5204.93" y2="466.26" style="stroke:#F0F0F0;stroke-width:9.72"/>
	<line x1="5204.93" y1="433.86" x2="5204.93" y2="369.06" style="stroke:#F0F0F0;stroke-width:9.72"/>
	<line x1="5204.93" y1="336.66" x2="5204.93" y2="309.82" style="stroke:#F0F0F0;stroke-width:9.72"/>
	<rect x="1296.68" y="2766.32" width="70.71" height="0.34" style="fill:#8D8D8D"/>
	<rect x="1299.11" y="2764.23" width="65.85" height="4.52" style="fill:none;stroke:#808080;stroke-width:4.86"/>
	<rect x="1375.31" y="2766.32" width="70.54" height="0.34" style="fill:#8D8D8D"/>
	<rect x="1377.74" y="2764.23" width="65.68" height="4.52" style="fill:none;stroke:#808080;stroke-width:4.86"/>
	<rect x="1610.89" y="2765.98" width="70.71" height="0.68" style="fill:#8D8D8D"/>
	<rect x="1613.32" y="2764.23" width="65.85" height="4.18" style="fill:none;stroke:#808080;stroke-width:4.86"/>
	<rect x="1689.36" y="2764.29" width="70.71" height="2.36" style="fill:#8D8D8D"/>
	<rect x="1691.79" y="2764.23" width="65.85" height="2.50" style="fill:none;stroke:#808080;stroke-width:4.86"/>
	<rect x="1767.83" y="2762.27" width="70.71" height="4.39" style="fill:#8D8D8D"/>
	<rect x="1770.26" y="2764.23" width="65.85" height="0.47" style="fill:none;stroke:#808080;stroke-width:4.86"/>
	<rect x="1846.46" y="2761.09" width="70.71" height="5.57" style="fill:#8D8D8D"/>
	<rect x="1848.89" y="2763.52" width="65.85" height="0.71" style="fill:none;stroke:#808080;stroke-width:4.86"/>
	<rect x="1924.93" y="2753.33" width="70.71" height="13.33" style="fill:#8D8D8D"/>
	<rect x="1927.36" y="2755.75" width="65.85" height="8.47" style="fill:none;stroke:#808080;stroke-width:4.86"/>
	<rect x="2003.40" y="2748.26" width="70.71" height="18.39" style="fill:#8D8D8D"/>
	<rect x="2005.83" y="2750.69" width="65.85" height="13.53" style="fill:none;stroke:#808080;stroke-width:4.86"/>
	<rect x="2082.04" y="2735.61" width="70.71" height="31.05" style="fill:#8D8D8D"/>
	<rect x="2084.47" y="2738.04" width="65.85" height="26.19" style="fill:none;stroke:#808080;stroke-width:4.86"/>
	<rect x="2160.51" y="2703.21" width="70.71" height="63.45" style="fill:#8D8D8D"/>
	<rect x="2162.94" y="2705.64" width="65.85" height="58.59" style="fill:none;stroke:#808080;stroke-width:4.86"/>
	<rect x="2239.14" y="2666.08" width="70.54" height="100.57" style="fill:#8D8D8D"/>
	<rect x="2241.57" y="2668.51" width="65.68" height="95.71" style="fill:none;stroke:#808080;stroke-width:4.86"/>
	<rect x="2317.61" y="2605.16" width="70.71" height="161.49" style="fill:#8D8D8D"/>
	<rect x="2320.04" y="2607.59" width="65.85" height="156.63" style="fill:none;stroke:#808080;stroke-width:4.86"/>
	<rect x="2396.08" y="2502.73" width="70.71" height="263.93" style="fill:#8D8D8D"/>
	<rect x="2398.51" y="2505.16" width="65.85" height="259.07" style="fill:none;stroke:#808080;stroke-width:4.86"/>
	<rect x="2474.72" y="2392.54" width="70.54" height="374.12" style="fill:#8D8D8D"/>
	<rect x="2477.15" y="2394.97" width="65.68" height="369.26" style="fill:none;stroke:#808080;stroke-width:4.86"/>
	<rect x="2553.19" y="2246.74" width="70.71" height="519.92" style="fill:#8D8D8D"/>
	<rect x="2555.62" y="2249.17" width="65.85" height="515.06" style="fill:none;stroke:#808080;stroke-width:4.86"/>
	<rect x="2631.66" y="2063.98" width="70.71" height="702.68" style="fill:#8D8D8D"/>
	<rect x="2634.09" y="2066.41" width="65.85" height="697.82" style="fill:none;stroke:#808080;stroke-width:4.86"/>
	<rect x="2710.29" y="1797.19" width="70.71" height="969.47" style="fill:#8D8D8D"/>
	<rect x="2712.72" y="1799.62" width="65.85" height="964.61" style="fill:none;stroke:#808080;stroke-width:4.86"/>
	<rect x="2788.76" y="1561.28" width="70.71" height="1205.38" style="fill:#8D8D8D"/>
	<rect x="2791.19" y="1563.71" width="65.85" height="1200.52" style="fill:none;stroke:#808080;stroke-width:4.86"/>
	<rect x="2867.23" y="1313.72" width="70.71" height="1452.94" style="fill:#8D8D8D"/>
	<rect x="2869.66" y="1316.15" width="65.85" height="1448.08" style="fill:none;stroke:#808080;stroke-width:4.86"/>
	<rect x="2945.87" y="1075.95" width="70.71" height="1690.71" style="fill:#8D8D8D"/>
	<rect x="2948.30" y="1078.38" width="65.85" height="1685.85" style="fill:none;stroke:#808080;stroke-width:4.86"/>
	<rect x="3024.34" y="832.61" width="70.71" height="1934.04" style="fill:#8D8D8D"/>
	<rect x="3026.77" y="835.04" width="65.85" height="1929.18" style="fill:none;stroke:#808080;stroke-width:4.86"/>
	<rect x="3102.81" y="643.61" width="70.71" height="2123.04" style="fill:#8D8D8D"/>
	<rect x="3105.24" y="646.04" width="65.85" height="2118.18" style="fill:none;stroke:#808080;stroke-width:4.86"/>
	<rect x="3181.44" y="582.02" width="70.71" height="2184.64" style="fill:#8D8D8D"/>
	<rect x="3183.87" y="584.45" width="65.85" height="2179.78" style="fill:none;stroke:#808080;stroke-width:4.86"/>
	<rect x="3259.91" y="481.61" width="70.71" height="2285.04" style="fill:#8D8D8D"/>
	<rect x="3262.34" y="484.04" width="65.85" height="2280.18" style="fill:none;stroke:#808080;stroke-width:4.86"/>
	<rect x="3338.55" y="529.54" width="70.54" height="2237.12" style="fill:#8D8D8D"/>
	<rect x="3340.98" y="531.97" width="65.68" height="2232.26" style="fill:none;stroke:#808080;stroke-width:4.86"/>
	<rect x="3417.02" y="662.68" width="70.71" height="2103.98" style="fill:#8D8D8D"/>
	<rect x="3419.45" y="665.11" width="65.85" height="2099.11" style="fill:none;stroke:#808080;stroke-width:4.86"/>
	<rect x="3495.49" y="890.66" width="70.71" height="1875.99" style="fill:#8D8D8D"/>
	<rect x="3497.92" y="893.09" width="65.85" height="1871.13" style="fill:none;stroke:#808080;stroke-width:4.86"/>
	<rect x="3574.13" y="1112.23" width="70.54" height="1654.43" style="fill:#8D8D8D"/>
	<rect x="3576.56" y="1114.66" width="65.68" height="1649.57" style="fill:none;stroke:#808080;stroke-width:4.86"/>
	<rect x="3652.59" y="1364.34" width="70.71" height="1402.31" style="fill:#8D8D8D"/>
	<rect x="3655.02" y="1366.77" width="65.85" height="1397.45" style="fill:none;stroke:#808080;stroke-width:4.86"/>
	<rect x="3731.06" y="1627.26" width="70.71" height="1139.40" style="fill:#8D8D8D"/>
	<rect x="3733.49" y="1629.69" width="65.85" height="1134.54" style="fill:none;stroke:#808080;stroke-width:4.86"/>
	<rect x="3809.70" y="1892.53" width="70.71" height="874.13" style="fill:#8D8D8D"/>
	<rect x="3812.13" y="1894.96" width="65.85" height="869.27" style="fill:none;stroke:#808080;stroke-width:4.86"/>
	<rect x="3888.17" y="2097.39" width="70.71" height="669.26" style="fill:#8D8D8D"/>
	<rect x="3890.60" y="2099.82" width="65.85" height="664.40" style="fill:none;stroke:#808080;stroke-width:4.86"/>
	<rect x="3966.64" y="2288.25" width="70.71" height="478.41" style="fill:#8D8D8D"/>
	<rect x="3969.07" y="2290.68" width="65.85" height="473.55" style="fill:none;stroke:#808080;stroke-width:4.86"/>
	<rect x="4045.28" y="2442.66" width="70.71" height="324.00" style="fill:#8D8D8D"/>
	<rect x="4047.71" y="2445.09" width="65.85" height="319.14" style="fill:none;stroke:#808080;stroke-width:4.86"/>
	<rect x="4123.74" y="2542.39" width="70.71" height="224.27" style="fill:#8D8D8D"/>
	<rect x="4126.17" y="2544.82" width="65.85" height="219.41" style="fill:none;stroke:#808080;stroke-width:4.86"/>
	<rect x="4202.21" y="2623.73" width="70.71" height="142.93" style="fill:#8D8D8D"/>
	<rect x="4204.64" y="2626.16" width="65.85" height="138.07" style="fill:none;stroke:#808080;stroke-width:4.86"/>
	<rect x="4280.85" y="2676.54" width="70.71" height="90.11" style="fill:#8D8D8D"/>
	<rect x="4283.28" y="2678.97" width="65.85" height="85.25" style="fill:none;stroke:#808080;stroke-width:4.86"/>
	<rect x="4359.32" y="2705.06" width="70.71" height="61.59" style="fill:#8D8D8D"/>
	<rect x="4361.75" y="2707.49" width="65.85" height="56.73" style="fill:none;stroke:#808080;stroke-width:4.86"/>
	<rect x="4437.96" y="2735.94" width="70.54" height="30.71" style="fill:#8D8D8D"/>
	<rect x="4440.39" y="2738.37" width="65.68" height="25.85" style="fill:none;stroke:#808080;stroke-width:4.86"/>
	<rect x="4516.43" y="2746.07" width="70.71" height="20.59" style="fill:#8D8D8D"/>
	<rect x="4518.86" y="2748.50" width="65.85" height="15.73" style="fill:none;stroke:#808080;stroke-width:4.86"/>
	<rect x="4594.89" y="2753.66" width="70.71" height="12.99" style="fill:#8D8D8D"/>
	<rect x="4597.32" y="2756.09" width="65.85" height="8.13" style="fill:none;stroke:#808080;stroke-width:4.86"/>
	<rect x="4673.53" y="2763.11" width="70.54" height="3.54" style="fill:#8D8D8D"/>
	<rect x="4675.96" y="2764.23" width="65.68" height="1.32" style="fill:none;stroke:#808080;stroke-width:4.86"/>
	<rect x="4752.00" y="2763.96" width="70.71" height="2.70" style="fill:#8D8D8D"/>
	<rect x="4754.43" y="2764.23" width="65.85" height="2.16" style="fill:none;stroke:#808080;stroke-width:4.86"/>
	<rect x="4830.47" y="2764.29" width="70.71" height="2.36" style="fill:#8D8D8D"/>
	<rect x="4832.90" y="2764.23" width="65.85" height="2.50" style="fill:none;stroke:#808080;stroke-width:4.86"/>
	<rect x="4909.11" y="2765.98" width="70.71" height="0.68" style="fill:#8D8D8D"/>
	<rect x="4911.54" y="2764.23" width="65.85" height="4.18" style="fill:none;stroke:#808080;stroke-width:4.86"/>
	<rect x="5144.68" y="2765.98" width="70.71" height="0.68" style="fill:#8D8D8D"/>
	<rect x="5147.11" y="2764.23" width="65.85" height="4.18" style="fill:none;stroke:#808080;stroke-width:4.86"/>
	<line x1="479.08" y1="2766.66" x2="479.08" y2="309.82" style="stroke:#000000;stroke-width:6.48"/>
	<line x1="479.08" y1="2766.66" x2="434.03" y2="2766.66" style="stroke:#000000;stroke-width:6.48"/>
	<text x="411.58" y="2806.09" style="font-family:'Times New Roman';font-size:112.56px;fill:#000000" text-anchor="end">0</text>
	<line x1="479.08" y1="1971.51" x2="434.03" y2="1971.51" style="stroke:#000000;stroke-width:6.48"/>
	<text x="411.58" y="2010.94" style="font-family:'Times New Roman';font-size:112.56px;fill:#000000" text-anchor="end">.2</text>
	<line x1="479.08" y1="1176.19" x2="434.03" y2="1176.19" style="stroke:#000000;stroke-width:6.48"/>
	<text x="411.58" y="1215.62" style="font-family:'Times New Roman';font-size:112.56px;fill:#000000" text-anchor="end">.4</text>
	<line x1="479.08" y1="381.04" x2="434.03" y2="381.04" style="stroke:#000000;stroke-width:6.48"/>
	<text x="411.58" y="420.47" style="font-family:'Times New Roman';font-size:112.56px;fill:#000000" text-anchor="end">.6</text>
	<text x="214.55" y="1538.16" style="font-family:'Times New Roman';font-size:112.56px;fill:#000000" transform="rotate(-90 214.55,1538.16)" text-anchor="middle">Density</text>
	<line x1="479.08" y1="2766.66" x2="5286.60" y2="2766.66" style="stroke:#000000;stroke-width:6.48"/>
	<line x1="550.29" y1="2766.66" x2="550.29" y2="2811.54" style="stroke:#000000;stroke-width:6.48"/>
	<text x="550.29" y="2912.86" style="font-family:'Times New Roman';font-size:112.56px;fill:#000000" text-anchor="middle">6</text>
	<line x1="1713.99" y1="2766.66" x2="1713.99" y2="2811.54" style="stroke:#000000;stroke-width:6.48"/>
	<text x="1713.99" y="2912.86" style="font-family:'Times New Roman';font-size:112.56px;fill:#000000" text-anchor="middle">8</text>
	<line x1="2877.69" y1="2766.66" x2="2877.69" y2="2811.54" style="stroke:#000000;stroke-width:6.48"/>
	<text x="2877.69" y="2912.86" style="font-family:'Times New Roman';font-size:112.56px;fill:#000000" text-anchor="middle">10</text>
	<line x1="4041.23" y1="2766.66" x2="4041.23" y2="2811.54" style="stroke:#000000;stroke-width:6.48"/>
	<text x="4041.23" y="2912.86" style="font-family:'Times New Roman';font-size:112.56px;fill:#000000" text-anchor="middle">12</text>
	<line x1="5204.93" y1="2766.66" x2="5204.93" y2="2811.54" style="stroke:#000000;stroke-width:6.48"/>
	<text x="5204.93" y="2912.86" style="font-family:'Times New Roman';font-size:112.56px;fill:#000000" text-anchor="middle">14</text>
	<text x="2882.76" y="3070.31" style="font-family:'Times New Roman';font-size:112.56px;fill:#000000" text-anchor="middle">Log(Annual Earnings)</text>
	<text x="2882.76" y="243.10" style="font-family:'Times New Roman';font-size:157.44px;fill:#000000" text-anchor="middle">Log(Annual Earnings)</text>
</svg>
